<?xml version="1.0" encoding="utf-8"?>
<!-- Generator: Adobe Illustrator 19.0.0, SVG Export Plug-In . SVG Version: 6.00 Build 0)  -->
<svg version="1.1" id="Layer_1" xmlns="http://www.w3.org/2000/svg" xmlns:xlink="http://www.w3.org/1999/xlink" x="0px" y="0px"
	 viewBox="0 0 256 185" style="enable-background:new 0 0 256 185;" xml:space="preserve">
<style type="text/css">
	.st0{fill:#C2C9CB;}
	.st1{fill:#777E94;}
	.st2{fill:#D09596;}
	.st3{fill:#A78A8B;}
	.st4{fill:#E6DBD3;}
	.st5{fill:#D9BFBF;}
	.st6{fill:#917779;}
</style>
<g id="XMLID_393_">
	<polygon id="XMLID_418_" class="st0" points="189.8,0 61.4,6.7 60.9,41.7 110,91.4 188.2,107.5 254.8,57.7 	"/>
	<polygon id="XMLID_396_" class="st1" points="14.2,80.8 60.9,41.7 61.4,6.7 	"/>
	<polygon id="XMLID_392_" class="st2" points="110,91.4 60.9,41.7 14.2,80.8 61.3,141.2 	"/>
	<polygon id="XMLID_397_" class="st3" points="14.2,80.8 1.2,131.1 26.6,179.3 61.3,141.2 	"/>
	<polygon id="XMLID_425_" class="st4" points="188.2,107.5 110,91.4 61.3,141.2 93.1,181.9 161.8,185 203.6,146.7 	"/>
	<polygon id="XMLID_401_" class="st5" points="203.6,146.7 253.2,165.4 254.8,57.7 188.2,107.5 	"/>
	<polygon id="XMLID_403_" class="st6" points="161.8,185 253.2,165.4 203.6,146.7 	"/>
	<polygon id="XMLID_399_" class="st6" points="26.5,179.3 61.3,141.2 93.1,181.9 	"/>
</g>
</svg>
